<svg width="149.9010009765625" height="80.4010009765625" viewBox="0 0 149.901 80.401" xmlns="http://www.w3.org/2000/svg"><g id="svgGroup" stroke-linecap="round" fill-rule="evenodd" font-size="9pt" stroke="#00bd95" stroke-width="0.50mm" fill="#00bd95" style="stroke:#00bd95;stroke-width:0.50mm;fill:#00bd95"><path d="M 122.9 46.801 L 99.4 46.801 L 99.4 43.801 L 122.9 43.801 A 22.454 22.454 0 0 0 129.929 42.724 A 20.412 20.412 0 0 0 133.25 41.301 Q 137.9 38.801 140.65 34.201 A 19.24 19.24 0 0 0 143.131 27.119 A 24.929 24.929 0 0 0 143.4 23.401 Q 143.4 17.201 140.65 12.601 Q 137.9 8.001 133.25 5.501 A 21.182 21.182 0 0 0 124.134 3.031 A 25.24 25.24 0 0 0 122.9 3.001 L 99.4 3.001 L 99.4 0.001 L 122.9 0.001 A 24.791 24.791 0 0 1 131.65 1.525 A 23.321 23.321 0 0 1 134.75 2.951 Q 140.1 5.901 143.25 11.151 A 22.003 22.003 0 0 1 146.151 19.602 A 28.149 28.149 0 0 1 146.4 23.401 Q 146.4 30.401 143.25 35.651 Q 140.1 40.901 134.75 43.851 A 23.947 23.947 0 0 1 123.708 46.789 A 28.181 28.181 0 0 1 122.9 46.801 Z M 122.9 40.201 L 99.4 40.201 L 99.4 37.201 L 122.9 37.201 A 15.285 15.285 0 0 0 128.339 36.259 A 13.855 13.855 0 0 0 132.75 33.551 A 11.958 11.958 0 0 0 136.51 26.675 A 17.634 17.634 0 0 0 136.8 23.401 A 16.743 16.743 0 0 0 136.283 19.118 A 11.753 11.753 0 0 0 132.75 13.251 Q 128.7 9.601 122.9 9.601 L 99.4 9.601 L 99.4 6.601 L 122.9 6.601 A 18.574 18.574 0 0 1 128.423 7.402 A 16.59 16.59 0 0 1 131.4 8.651 Q 135.2 10.701 137.5 14.451 Q 139.8 18.201 139.8 23.401 A 19.713 19.713 0 0 1 139.328 27.816 A 15.038 15.038 0 0 1 137.5 32.351 Q 135.2 36.101 131.4 38.151 A 17.25 17.25 0 0 1 124.204 40.16 A 20.727 20.727 0 0 1 122.9 40.201 Z M 69.6 80.401 L 66.6 80.401 L 66.6 0.001 L 69.6 0.001 L 69.6 80.401 Z M 56.4 80.401 L 53.4 80.401 L 53.4 0.001 L 56.4 0.001 L 56.4 80.401 Z M 63 80.401 L 60 80.401 L 60 0.001 L 63 0.001 L 63 80.401 Z M 16.2 80.401 L 13.2 80.401 L 13.2 0.001 L 16.2 0.001 L 16.2 80.401 Z M 3 80.401 L 0 80.401 L 0 0.001 L 3 0.001 L 3 80.401 Z M 9.6 80.401 L 6.6 80.401 L 6.6 0.001 L 9.6 0.001 L 9.6 80.401 Z M 95.8 80.401 L 92.8 80.401 L 92.8 0.001 L 95.8 0.001 L 95.8 80.401 Z M 82.6 80.401 L 79.6 80.401 L 79.6 0.001 L 82.6 0.001 L 82.6 80.401 Z M 89.2 80.401 L 86.2 80.401 L 86.2 0.001 L 89.2 0.001 L 89.2 80.401 Z M 123.4 80.401 L 99.1 80.401 L 99.1 77.401 L 123.4 77.401 Q 130.7 77.401 135.95 74.551 Q 141.2 71.701 144.05 66.751 A 21.461 21.461 0 0 0 146.8 57.816 A 26.292 26.292 0 0 0 146.9 55.501 A 28.93 28.93 0 0 0 146.12 48.719 A 26.894 26.894 0 0 0 145.95 48.051 A 19.191 19.191 0 0 0 144.174 43.618 A 16.99 16.99 0 0 0 143 41.801 Q 143.6 41.301 144.15 40.751 Q 144.7 40.201 145.1 39.501 Q 149.9 45.801 149.9 55.501 Q 149.9 62.601 146.65 68.251 Q 143.4 73.901 137.45 77.151 A 26.098 26.098 0 0 1 129.187 79.941 A 34.998 34.998 0 0 1 123.4 80.401 Z M 122.9 33.601 L 99.4 33.601 L 99.4 30.601 L 122.9 30.601 A 8.579 8.579 0 0 0 125.758 30.139 A 7.584 7.584 0 0 0 128.05 28.851 Q 130.007 27.258 130.183 24.049 A 11.866 11.866 0 0 0 130.2 23.401 Q 130.2 20.913 129.278 19.325 A 4.991 4.991 0 0 0 128.05 17.901 A 7.873 7.873 0 0 0 123.637 16.227 A 10.058 10.058 0 0 0 122.9 16.201 L 99.4 16.201 L 99.4 13.201 L 122.9 13.201 A 11.795 11.795 0 0 1 126.818 13.831 A 10.333 10.333 0 0 1 130.2 15.801 A 8.363 8.363 0 0 1 132.841 20.231 Q 133.2 21.672 133.2 23.401 A 13.281 13.281 0 0 1 132.877 26.424 Q 132.365 28.613 131.044 30.154 A 8.089 8.089 0 0 1 130.2 31.001 A 10.587 10.587 0 0 1 123.695 33.578 A 13.646 13.646 0 0 1 122.9 33.601 Z M 123.4 73.801 L 99.1 73.801 L 99.1 70.801 L 123.4 70.801 A 25.649 25.649 0 0 0 128.197 70.381 Q 130.961 69.854 133.11 68.666 A 12.855 12.855 0 0 0 136 66.501 A 14.517 14.517 0 0 0 140.233 57.138 A 19.564 19.564 0 0 0 140.3 55.501 Q 140.3 52.901 139.7 50.451 A 17.998 17.998 0 0 0 138.839 47.802 A 14.624 14.624 0 0 0 138 46.101 A 7.852 7.852 0 0 0 138.879 45.59 A 6.411 6.411 0 0 0 139.4 45.201 A 20.269 20.269 0 0 0 139.822 44.84 Q 140.027 44.659 140.202 44.494 A 10.296 10.296 0 0 0 140.4 44.301 A 16.448 16.448 0 0 1 141.958 47.49 A 20.462 20.462 0 0 1 142.55 49.401 Q 143.3 52.301 143.3 55.501 A 19.719 19.719 0 0 1 142.232 62.106 A 17.191 17.191 0 0 1 138.1 68.601 Q 132.9 73.801 123.4 73.801 Z M 49.8 47.401 L 49.8 52.701 L 19.8 9.601 L 19.8 4.301 L 49.8 47.401 Z M 49.8 70.601 L 49.8 75.901 L 19.8 32.801 L 19.8 27.501 L 49.8 70.601 Z M 49.8 59.001 L 49.8 64.301 L 19.8 21.201 L 19.8 15.901 L 49.8 59.001 Z M 123.4 67.201 L 99.1 67.201 L 99.1 64.201 L 123.4 64.201 A 19.936 19.936 0 0 0 126.176 64.021 Q 129.433 63.562 131.171 61.926 A 5.961 5.961 0 0 0 131.3 61.801 Q 133.7 59.401 133.7 55.501 A 12.085 12.085 0 0 0 133.232 52.076 A 10.073 10.073 0 0 0 131.8 49.101 A 7.999 7.999 0 0 0 133.014 48.641 A 8.977 8.977 0 0 0 133.2 48.551 Q 133.9 48.201 134.6 47.801 Q 136.7 51.201 136.7 55.501 A 13.552 13.552 0 0 1 136.164 59.404 A 10.659 10.659 0 0 1 133.45 63.951 A 9.986 9.986 0 0 1 129.661 66.27 Q 127.039 67.201 123.4 67.201 Z" vector-effect="non-scaling-stroke" class="svg-elem-1"></path></g></svg>