<svg width="137.6" height="72.72" viewBox="0 0 137.6 72.72" xmlns="http://www.w3.org/2000/svg" style=""><g id="svgGroup" stroke-linecap="round" fill-rule="evenodd" font-size="9pt" stroke="#00bd95" stroke-width="0.50mm" fill="none" style="stroke:#00bd95;stroke-width:0.50mm;fill:none"><path d="M 13.1 9.6 L 13.1 55.8 Q 13.1 63.4 15.65 66.35 Q 18.2 69.3 21.5 69.3 Q 22.2 69.3 22.55 69.8 A 1.925 1.925 0 0 1 22.877 70.653 A 2.521 2.521 0 0 1 22.9 71 Q 22.9 71.6 22.55 72.1 A 1.139 1.139 0 0 1 21.73 72.586 A 1.73 1.73 0 0 1 21.5 72.6 Q 20.579 72.6 18.556 72.473 A 152.557 152.557 0 0 1 18.2 72.45 Q 16.439 72.336 13.389 72.309 A 226.004 226.004 0 0 0 11.4 72.3 Q 6.9 72.3 4.909 72.413 A 23.013 23.013 0 0 0 4.35 72.45 Q 2.5 72.6 1.4 72.6 Q 0.7 72.6 0.35 72.1 Q 0 71.6 0 71 A 2.338 2.338 0 0 1 0.076 70.39 A 1.867 1.867 0 0 1 0.35 69.8 A 1.139 1.139 0 0 1 1.17 69.315 A 1.73 1.73 0 0 1 1.4 69.3 A 6.67 6.67 0 0 0 6.511 67.062 A 8.909 8.909 0 0 0 7.1 66.35 A 8.33 8.33 0 0 0 8.236 64.13 Q 9.047 61.833 9.24 58.258 A 43.836 43.836 0 0 0 9.3 55.9 L 9.3 10.2 A 15.142 15.142 0 0 0 9.19 8.293 Q 8.931 6.264 8.065 5.209 A 3.022 3.022 0 0 0 7.15 4.45 Q 5 3.3 2 3.3 Q 1.3 3.3 0.95 2.8 A 1.925 1.925 0 0 1 0.623 1.948 A 2.521 2.521 0 0 1 0.6 1.6 Q 0.6 1 0.95 0.5 A 1.139 1.139 0 0 1 1.77 0.015 A 1.73 1.73 0 0 1 2 0 A 24.529 24.529 0 0 1 2.374 0.004 Q 3.344 0.019 5.7 0.1 A 110.734 110.734 0 0 0 7.4 0.144 Q 10.421 0.2 16 0.2 A 8.438 8.438 0 0 1 16.962 0.251 Q 17.972 0.368 18.597 0.749 A 2.532 2.532 0 0 1 18.6 0.75 Q 19.4 1.239 20.042 2.242 A 7.302 7.302 0 0 1 20.2 2.5 Q 20.668 3.249 22.449 6.011 A 1864.906 1864.906 0 0 0 22.7 6.4 L 27.7 14.15 Q 30.7 18.8 34.25 24.2 Q 37.8 29.6 41.3 35 Q 44.8 40.4 47.85 45 Q 50.9 49.6 52.95 52.65 A 880.782 880.782 0 0 0 53.664 53.712 Q 54.981 55.664 55.429 56.301 A 19.051 19.051 0 0 0 55.5 56.4 A 1.451 1.451 0 0 0 55.69 56.562 Q 55.995 56.777 56.3 56.7 Q 56.69 56.603 56.7 56.125 A 1.213 1.213 0 0 0 56.7 56.1 L 56.7 16.9 Q 56.7 10.889 55.182 7.716 A 7.972 7.972 0 0 0 54.4 6.4 Q 52.1 3.3 48.9 3.3 Q 48.2 3.3 47.85 2.8 A 1.925 1.925 0 0 1 47.523 1.948 A 2.521 2.521 0 0 1 47.5 1.6 Q 47.5 1 47.85 0.5 A 1.139 1.139 0 0 1 48.67 0.015 A 1.73 1.73 0 0 1 48.9 0 A 27.931 27.931 0 0 1 49.459 0.007 Q 50.388 0.025 51.85 0.1 A 51.46 51.46 0 0 0 52.991 0.144 Q 54.743 0.194 57.689 0.2 A 394.94 394.94 0 0 0 58.4 0.2 Q 62.6 0.2 64.6 0.1 A 132.111 132.111 0 0 1 65.538 0.057 Q 66.44 0.018 67.076 0.006 A 27.815 27.815 0 0 1 67.6 0 A 1.208 1.208 0 0 1 68.51 0.397 A 1.638 1.638 0 0 1 68.6 0.5 A 1.833 1.833 0 0 1 68.918 1.077 A 1.674 1.674 0 0 1 69 1.6 Q 69 2.3 68.6 2.8 A 1.407 1.407 0 0 1 68.242 3.124 A 1.198 1.198 0 0 1 67.6 3.3 Q 66.358 3.3 65.012 4.192 A 8.492 8.492 0 0 0 64.45 4.6 A 6.634 6.634 0 0 0 63.237 5.875 Q 62.351 7.072 61.65 8.9 Q 60.502 11.897 60.5 16.987 A 42.697 42.697 0 0 0 60.5 17 L 60.5 54.5 L 60.5 56.35 L 60.5 57.9 A 415.07 415.07 0 0 0 60.507 60.385 Q 60.513 61.361 60.524 62.24 A 214.087 214.087 0 0 0 60.55 63.9 Q 60.584 65.619 60.69 67.763 A 210.682 210.682 0 0 0 60.8 69.8 Q 60.9 71.1 59.55 71.9 A 7.151 7.151 0 0 1 58.651 72.356 Q 58.172 72.555 57.728 72.639 A 3.373 3.373 0 0 1 57.1 72.7 A 9.121 9.121 0 0 1 56.737 72.718 Q 55.893 72.74 55.319 72.583 A 2.275 2.275 0 0 1 54.85 72.4 Q 54.225 72.067 53.705 71.318 A 5.662 5.662 0 0 1 53.5 71 Q 52.441 69.075 50.039 65.157 A 419.348 419.348 0 0 0 49.85 64.85 Q 47.659 61.284 44.803 56.794 A 913.212 913.212 0 0 0 43.85 55.3 Q 40.4 49.9 36.55 43.9 Q 32.7 37.9 28.95 32.1 Q 25.2 26.3 22.05 21.45 Q 18.938 16.658 16.801 13.428 A 616.64 616.64 0 0 0 16.75 13.35 A 784.114 784.114 0 0 0 16.002 12.221 Q 14.625 10.147 14.171 9.501 A 14.604 14.604 0 0 0 14.1 9.4 A 0.572 0.572 0 0 0 13.907 9.216 Q 13.739 9.12 13.5 9.15 A 0.602 0.602 0 0 0 13.33 9.195 Q 13.143 9.278 13.108 9.494 A 0.666 0.666 0 0 0 13.1 9.6 Z M 84.4 63.2 L 84.4 9.2 A 9.428 9.428 0 0 0 84.262 7.521 Q 83.831 5.146 82.05 4.35 Q 79.922 3.4 76.113 3.31 A 34.498 34.498 0 0 0 75.3 3.3 Q 74.6 3.3 74.25 2.8 A 1.925 1.925 0 0 1 73.923 1.948 A 2.521 2.521 0 0 1 73.9 1.6 Q 73.9 1 74.25 0.5 A 1.139 1.139 0 0 1 75.07 0.015 A 1.73 1.73 0 0 1 75.3 0 A 28.782 28.782 0 0 1 75.695 0.004 Q 76.756 0.019 79.6 0.1 Q 82.731 0.19 87.622 0.199 A 610.843 610.843 0 0 0 88.8 0.2 Q 99.5 0.2 106.15 0.1 A 2214.881 2214.881 0 0 1 108.842 0.061 Q 113.259 0 114.9 0 A 24.12 24.12 0 0 1 121.279 0.821 A 21.207 21.207 0 0 1 124.75 2.1 A 19.575 19.575 0 0 1 129.4 5.123 A 17.098 17.098 0 0 1 131.85 7.8 A 13.617 13.617 0 0 1 134.5 16.027 A 16.6 16.6 0 0 1 134.5 16.1 A 19.731 19.731 0 0 1 134.23 19.456 Q 133.823 21.816 132.8 23.65 Q 131.1 26.7 128.6 28.7 A 28.162 28.162 0 0 1 125.958 30.586 A 21.861 21.861 0 0 1 123.65 31.85 Q 121.631 32.798 120.325 33.305 A 20.973 20.973 0 0 1 119.8 33.5 A 2.891 2.891 0 0 0 119.46 33.636 Q 118.9 33.906 118.9 34.3 Q 118.9 34.8 119.8 35 Q 121.8 35.4 124.8 36.45 A 24.474 24.474 0 0 1 128.901 38.343 A 29.287 29.287 0 0 1 130.75 39.5 Q 133.7 41.5 135.65 44.7 A 12.984 12.984 0 0 1 137.277 48.986 A 18.169 18.169 0 0 1 137.6 52.5 A 20.097 20.097 0 0 1 137.15 56.851 A 15.203 15.203 0 0 1 135.25 61.6 Q 132.9 65.4 129.05 67.85 Q 125.2 70.3 120.55 71.45 Q 115.9 72.6 111.2 72.6 Q 110.1 72.6 108.75 72.55 Q 107.4 72.5 105.1 72.5 Q 102.8 72.5 98.85 72.45 Q 94.9 72.4 88.5 72.4 A 548.222 548.222 0 0 0 85.806 72.407 Q 82 72.425 79.6 72.5 A 476.4 476.4 0 0 1 78.301 72.539 Q 76.159 72.6 75.3 72.6 A 1.208 1.208 0 0 1 74.39 72.204 A 1.638 1.638 0 0 1 74.3 72.1 A 1.833 1.833 0 0 1 73.982 71.524 A 1.674 1.674 0 0 1 73.9 71 Q 73.9 70.3 74.3 69.8 A 1.407 1.407 0 0 1 74.658 69.477 A 1.198 1.198 0 0 1 75.3 69.3 A 26.078 26.078 0 0 0 77.732 69.195 Q 80.398 68.944 82.05 68.1 Q 84.126 67.04 84.368 64.029 A 10.351 10.351 0 0 0 84.4 63.2 Z M 95.4 69 L 111.2 69 A 22.595 22.595 0 0 0 115.58 68.604 Q 118.158 68.094 120.124 66.928 A 11.234 11.234 0 0 0 123 64.5 A 15.448 15.448 0 0 0 126.149 58.197 Q 126.8 55.606 126.8 52.5 A 17.282 17.282 0 0 0 126.06 47.373 A 15.294 15.294 0 0 0 124.7 44.25 Q 122.6 40.6 118.85 38.45 Q 115.1 36.3 109.9 36.3 L 94.6 36.3 Q 93.568 36.3 93.355 37.119 A 1.915 1.915 0 0 0 93.3 37.6 L 93.3 67 Q 93.3 68.596 94.636 68.918 A 3.261 3.261 0 0 0 95.4 69 Z M 94.6 32.7 L 110.1 32.7 Q 116 32.7 120.2 28.7 Q 124.4 24.7 124.4 16.4 A 18.302 18.302 0 0 0 123.992 12.428 Q 123.313 9.369 121.5 7.15 Q 118.6 3.6 111.5 3.6 L 95.4 3.6 A 3.184 3.184 0 0 0 94.582 3.696 Q 93.3 4.038 93.3 5.6 L 93.3 31.4 Q 93.3 32.432 94.119 32.645 A 1.915 1.915 0 0 0 94.6 32.7 Z" vector-effect="non-scaling-stroke" class="PCsiXArb_0"></path></g><style data-made-with="vivus-instant">.PCsiXArb_0{stroke-dasharray:1009 1011;stroke-dashoffset:1010;animation:PCsiXArb_draw 2000ms linear 0ms forwards;}@keyframes PCsiXArb_draw{100%{stroke-dashoffset:0;}}@keyframes PCsiXArb_fade{0%{stroke-opacity:1;}94.44444444444444%{stroke-opacity:1;}100%{stroke-opacity:0;}}</style></svg>